<svg width="20" height="20" viewBox="0 0 20 20" fill="none" xmlns="http://www.w3.org/2000/svg">
<path d="M6.66406 15C5.28968 15 4.16519 16.125 4.16519 17.5C4.16519 18.875 5.28968 20 6.66406 20C8.03843 20 9.16292 18.875 9.16292 17.5C9.16292 16.125 8.03843 15 6.66406 15ZM6.66406 18.3333C6.20593 18.3333 5.8311 17.9583 5.8311 17.5C5.8311 17.0417 6.20593 16.6667 6.66406 16.6667C7.12218 16.6667 7.49701 17.0417 7.49701 17.5C7.49701 17.9583 7.12218 18.3333 6.66406 18.3333Z" fill="#202020"/>
<path d="M14.9936 15C13.6192 15 12.4947 16.125 12.4947 17.5C12.4947 18.875 13.6192 20 14.9936 20C16.368 20 17.4925 18.875 17.4925 17.5C17.4925 16.125 16.368 15 14.9936 15ZM14.9936 18.3333C14.5355 18.3333 14.1606 17.9583 14.1606 17.5C14.1606 17.0417 14.5355 16.6667 14.9936 16.6667C15.4517 16.6667 15.8266 17.0417 15.8266 17.5C15.8266 17.9583 15.4517 18.3333 14.9936 18.3333Z" fill="#202020"/>
<path d="M4.06524 0H0.833374V1.66667H2.59924L4.26515 14.1667H17.4841V12.5H5.73115L5.62286 11.6667H17.5424L19.1667 3.33333H4.5067L4.06524 0ZM17.1426 5L16.1681 10H5.39797L4.7316 5H17.1426Z" fill="#202020"/>
</svg>
