<svg width="20" height="19" viewBox="0 0 20 19" fill="none" xmlns="http://www.w3.org/2000/svg">
<path d="M11.0759 2.20188L9.99166 3.31009L8.89908 2.19355C7.91493 1.21034 6.6055 0.668734 5.21268 0.668734C3.81985 0.668734 2.51043 1.21034 1.52627 2.19355C0.542119 3.17677 0 4.48495 0 5.86812C0 7.25129 0.542119 8.55946 1.52627 9.53435L10 18.1667L18.4737 9.53435C19.4579 8.55113 20 7.24295 20 5.85978C20 4.47661 19.4579 3.16844 18.4737 2.18523C16.4387 0.160467 13.1276 0.160467 11.0842 2.18523L11.0759 2.20188ZM17.2811 8.37615L9.99166 15.8003L2.70225 8.36782C2.03503 7.70124 1.65972 6.80968 1.65972 5.86812C1.65972 4.92657 2.02669 4.03501 2.70225 3.36842C3.36947 2.70183 4.26188 2.3352 5.21268 2.3352C6.16347 2.3352 7.05588 2.70182 7.71476 3.36008L9.99166 5.70146L12.2686 3.36842C13.653 1.99358 15.9049 1.98525 17.2894 3.36842C17.9566 4.03501 18.3319 4.92657 18.3319 5.86812C18.3319 6.80968 17.965 7.6929 17.2894 8.36782L17.2811 8.37615Z" fill="#202020"/>
</svg>
