<svg width="20" height="20" viewBox="0 0 20 20" fill="none" xmlns="http://www.w3.org/2000/svg">
<path d="M13.3306 0C9.65402 0 6.66111 2.99291 6.66111 6.66945C6.66111 8.21176 7.18633 9.62068 8.07003 10.7545L0 18.8245L1.17549 20L9.24552 11.93C10.3793 12.8053 11.7882 13.3389 13.3306 13.3389C17.0071 13.3389 20 10.346 20 6.66945C20 2.99291 17.0071 0 13.3306 0ZM13.3306 11.6715C10.5711 11.6715 8.32847 9.42893 8.32847 6.66945C8.32847 3.90996 10.5711 1.66736 13.3306 1.66736C16.09 1.66736 18.3326 3.90996 18.3326 6.66945C18.3326 9.42893 16.09 11.6715 13.3306 11.6715Z" fill="#202020"/>
</svg>
