<svg width="20" height="20" viewBox="0 0 20 20" fill="none" xmlns="http://www.w3.org/2000/svg">
<path d="M18.3083 16.9917V15.8333L15.6719 15.8583C12.4533 15.8583 9.83355 13.2333 9.83355 10.0083C9.83355 6.78333 12.4533 4.15833 15.6719 4.15833H18.3083V2.58333C16.462 0.925 14.1 0 11.6216 0C6.1243 0 1.6416 4.48333 1.6416 10C1.6416 15.5167 6.11599 20 11.6216 20C14.1 20 16.462 19.075 18.3 17.4083V16.9917H18.3083ZM11.63 18.3333C7.04746 18.3333 3.31326 14.5917 3.31326 10C3.31326 5.40833 7.03914 1.66667 11.6216 1.66667C12.8941 1.66667 14.1333 1.95833 15.2644 2.50833C11.3139 2.71667 8.17021 6 8.17021 10.0083C8.17021 14.0167 11.289 17.275 15.2145 17.5083C14.1 18.0417 12.8775 18.325 11.6216 18.325L11.63 18.3333Z" fill="#202020"/>
</svg>
