<svg width="20" height="20" viewBox="0 0 20 20" fill="none" xmlns="http://www.w3.org/2000/svg">
<path d="M10.8333 3.29713e-09L9.16667 7.61494e-08L9.16667 2.55C7.725 2.70833 6.4 3.28334 5.325 4.15L3.51667 2.34166L2.34167 3.51667L4.15 5.325C3.28333 6.4 2.71667 7.725 2.55 9.16667L-4.7354e-07 9.16667L-4.00688e-07 10.8333L2.55 10.8333C2.70833 12.275 3.28333 13.6 4.15 14.675L2.34167 16.4833L3.51667 17.6583L5.325 15.85C6.4 16.7167 7.725 17.2833 9.16667 17.45L9.16667 20L10.8333 20L10.8333 17.45C12.275 17.2917 13.6 16.7167 14.675 15.85L16.4833 17.6583L17.6583 16.4833L15.85 14.675C16.7167 13.6 17.2833 12.275 17.45 10.8333L20 10.8333L20 9.16667L17.45 9.16667C17.2917 7.725 16.7167 6.4 15.85 5.325L17.6583 3.51667L16.4833 2.34166L14.675 4.15C13.6 3.28334 12.275 2.71666 10.8333 2.55L10.8333 3.29713e-09Z" fill="white"/>
</svg>
