<svg width="21" height="20" viewBox="0 0 21 20" fill="none" xmlns="http://www.w3.org/2000/svg">
<path fill-rule="evenodd" clip-rule="evenodd" d="M18.8333 1.66667H2.16667L2.16667 3.33333H18.8333V1.66667ZM18.8333 9.16667H2.16667L2.16667 10.8333H18.8333V9.16667ZM18.8333 16.6667H2.16667L2.16667 18.3333H18.8333V16.6667ZM0.5 1.66667C0.5 0.746192 1.24619 0 2.16667 0H18.8333C19.7538 0 20.5 0.746192 20.5 1.66667V3.33333C20.5 4.25381 19.7538 5 18.8333 5H2.16667C1.24619 5 0.5 4.25381 0.5 3.33333V1.66667ZM0.5 9.16667C0.5 8.24619 1.24619 7.5 2.16667 7.5H18.8333C19.7538 7.5 20.5 8.24619 20.5 9.16667V10.8333C20.5 11.7538 19.7538 12.5 18.8333 12.5H2.16667C1.24619 12.5 0.5 11.7538 0.5 10.8333V9.16667ZM2.16667 15C1.24619 15 0.5 15.7462 0.5 16.6667V18.3333C0.5 19.2538 1.24619 20 2.16667 20H18.8333C19.7538 20 20.5 19.2538 20.5 18.3333V16.6667C20.5 15.7462 19.7538 15 18.8333 15H2.16667Z" fill="#202020"/>
</svg>
