<svg width="20" height="20" viewBox="0 0 20 20" fill="none" xmlns="http://www.w3.org/2000/svg">
<path d="M9.99162 11.6535C13.2083 11.6535 15.825 9.0379 15.825 5.82257C15.825 2.60725 13.2083 -0.0083313 9.99162 -0.0083313C6.77495 -0.0083313 4.15828 2.60725 4.15828 5.82257C4.15828 9.0379 6.77495 11.6535 9.99162 11.6535ZM9.99162 1.65764C12.2916 1.65764 14.1583 3.52353 14.1583 5.82257C14.1583 8.12162 12.2916 9.98751 9.99162 9.98751C7.69162 9.98751 5.82495 8.12162 5.82495 5.82257C5.82495 3.52353 7.69162 1.65764 9.99162 1.65764Z" fill="#202020"/>
<path d="M14.9916 12.4865H4.99162C2.69162 12.4865 0.824951 14.3524 0.824951 16.6514V19.9917H2.49162V16.6514C2.49162 15.277 3.61662 14.1524 4.99162 14.1524H14.9916C16.3666 14.1524 17.4916 15.277 17.4916 16.6514V19.9917H19.1583V16.6514C19.1583 14.3524 17.2916 12.4865 14.9916 12.4865Z" fill="#202020"/>
</svg>
