<svg width="32" height="32" viewBox="0 0 32 32" fill="none" xmlns="http://www.w3.org/2000/svg">
<path d="M0 31.4854H5.87099V21.3326C6.36958 21.4731 8.25002 21.4731 8.70939 21.4731C13.7363 21.4731 18.5709 18.4923 18.5709 10.6198C18.5709 1.49153 12.8157 0 7.44332 0C4.83461 0 2.11012 0.326415 0 0.791103V31.4854ZM7.9419 6.14748C10.2051 6.14748 12.431 7.03152 12.431 10.4793C12.431 14.5323 10.052 15.3234 7.673 15.3234C7.36675 15.3234 6.17724 15.2304 5.86913 15.1375V6.38096C6.33037 6.24042 7.09599 6.14748 7.94003 6.14748" fill="#202020"/>
<path d="M19.4635 12.2043H22.1115L19.4635 23.9416C19.1573 25.2926 18.8492 26.689 18.8492 28.04C18.8492 30.8349 20.4999 32 22.4569 32C25.0656 32 27.7136 30.7419 29.4782 28.5998L29.0562 27.4347C27.9825 28.1329 26.8695 28.4593 25.7566 28.4593C24.6436 28.4593 24.1077 27.4801 24.1077 26.5031C24.1077 25.5261 24.3374 24.5015 24.5297 23.6152L27.1384 12.2043H31.3979C31.8199 11.4585 32.0888 10.2481 31.973 9.36403H27.7136L28.8265 4.47461L28.0982 3.96231C26.9461 4.10285 24.6455 4.61514 23.5325 5.54679L22.8043 8.89934C21.5382 9.31869 20.541 9.78338 19.542 10.4362L19.4654 12.2066L19.4635 12.2043Z" fill="#202020"/>
</svg>
