<svg xmlns="http://www.w3.org/2000/svg" fill="none" viewBox="0 0 32 32"><path fill="#202020" d="M0 31.49h5.87v-10.16c.5.14 2.38.14 2.84.14 5.03 0 9.86-2.98 9.86-10.85 0-9.13-5.75-10.62-11.13-10.62-2.6 0-5.33.33-7.44.8zm7.94-25.34c2.27 0 4.5.88 4.5 4.33 0 4.05-2.39 4.84-4.77 4.84-.3 0-1.5-.09-1.8-.18v-8.76a8 8 0 0 1 2.07-.23m11.52 6.05h2.65l-2.65 11.74c-.3 1.35-.61 2.75-.61 4.1 0 2.8 1.65 3.96 3.6 3.96a9.3 9.3 0 0 0 7.03-3.4l-.42-1.17a6 6 0 0 1-3.3 1.03c-1.12 0-1.65-.98-1.65-1.96 0-.97.23-2 .42-2.88l2.6-11.42h4.27a5 5 0 0 0 .57-2.84h-4.26l1.12-4.89-.73-.5c-1.15.13-3.45.65-4.57 1.58l-.73 3.35c-1.26.42-2.26.88-3.26 1.54z"/></svg>