<svg xmlns="http://www.w3.org/2000/svg" fill="none" viewBox="0 0 230 60"><path fill="#202020" d="M99.93 40.2c-2.5 0-4.08-1.45-4.08-3.88 0-3.02 3.48-4.14 7.9-4.14q1.19.02 2.5.13v4.27a6.8 6.8 0 0 1-6.32 3.62m-8.82-18.1c2.43-1.12 6.7-1.9 10.13-1.9 3.75 0 5.06 1.38 5.06 4.66 0 .66 0 1.39-.13 2.24q-1.3-.1-2.5-.08c-10.19 0-16.64 3.17-16.64 10.6 0 5.72 4 9.61 10.06 9.61 4.87 0 7.89-2.3 9.67-5h.33l1.38 4.54h6.97c-.91-2.77-1.18-5.8-1.18-9.02 0-4.2.46-8.68.46-13.09 0-6.97-2.63-11.52-11.84-11.52-5.27 0-10.33 1-13.81 2.57zm-5-8.28q-2.1-.71-3.88-.73c-3.43 0-6 1.84-7.5 5.07h-.26l-.98-4.34h-6.65v32.88h8.55v-21.24a5.8 5.8 0 0 1 5.92-4.35q1.69.02 3.68.73zm-40.6 26.38c-2.5 0-4.08-1.45-4.08-3.88 0-3.02 3.49-4.14 7.9-4.14.78 0 1.64.07 2.49.13v4.27c-.92 1.78-2.9 3.62-6.32 3.62m-8.82-18.1c2.44-1.12 6.71-1.9 10.14-1.9 3.74 0 5.06 1.38 5.06 4.66 0 .66 0 1.39-.13 2.24q-1.3-.1-2.5-.08c-10.2 0-16.64 3.17-16.64 10.6 0 5.72 4.01 9.61 10.06 9.61 4.87 0 7.9-2.3 9.67-5h.34l1.38 4.54h6.97c-.92-2.77-1.18-5.8-1.18-9.02 0-4.2.46-8.68.46-13.09 0-6.97-2.62-11.52-11.84-11.52-5.26 0-10.32 1-13.82 2.57l2.04 6.38zm-23.26-14.34c4.53 0 9.14 1.57 9.14 7.36 0 6.78-4.87 8.17-9.67 8.17-.73 0-3.16-.07-3.88-.27v-14.93c1-.2 2.7-.33 4.4-.33m-13.42 38.94h9.01v-15.85c.92.2 4.35.27 5.2.27 9.08 0 17.83-4.35 17.83-15.86 0-12.9-10.14-15.26-19.34-15.26-4.34 0-9.01.4-12.7 1.12zm226.53-8.97c-1.71 1.91-4.94 4.34-8.03 4.34-3.61 0-6.24-2.7-6.24-7.63 0-1.05.06-2.43.4-3.69 12.22-.99 17.35-4.86 17.35-10.78 0-4.14-3.55-6.7-8.42-6.7-10.45 0-18.07 10.06-18.07 21.95 0 7.63 4.2 12.03 11.5 12.03 5.99 0 11.25-4.48 13.02-7.89zm-105.84-19.66h4.33l-3.54 17.36c-.27 1.52-.72 3.94-.72 5.98 0 3.68 2.17 5.85 6.44 5.85 4.87 0 9.67-2.7 11.51-5l-.79-1.65a10.7 10.7 0 0 1-5.4 1.45c-1.83 0-2.88-.92-2.88-3.29 0-1.05.2-2.17.52-3.81l3.49-16.9 8.42-.07 8.6 28.47a15.7 15.7 0 0 1-4.93 7.69l-4.6-3.42c-2.37.85-4.6 5.71-4.01 8.02a7 7 0 0 0 4.27 1.25c5.98 0 10.38-4.6 15.05-13.55 5.72-10.65 10.32-21.89 12.43-32.2-.92-.6-2.44-.86-4.14-.86-1.71 0-3.55.26-4.74.85.26 1 1.57 6.71 1.57 8.48a95 95 0 0 1-4.33 13.4l-1.18 3.76h-.2l-.27-3.75-4.6-19.72c-.4-1.91-1.58-3.16-3.88-3.16-1.84 0-7.56.4-12.82.8l1.51-7.17-1.25-.72c-2.36.33-6.45 1.26-7.63 2.3l-1.05 4.94a18 18 0 0 0-5.2 2.23v2.43zm57 27.88c1.57 1.05 2.83 1.31 5.19 1.31 10.33 0 18.01-10.06 18.01-24.12 0-6.25-2.96-9.86-7.75-9.86-4.28 0-7.7 2.36-10.2 7.55h-.33l1.31-6.77-1.18-.79c-3.22 0-9.13 1.19-11.57 2.37v2.17l3.36 1-8.03 39.9.85.78h12.62v-2.5a13 13 0 0 0-4.21-1.83l1.9-9.2zm10.98-27.61c2.5 0 3.62 1.97 3.62 5.71 0 9.2-4.54 19.4-10 19.4-2.04 0-2.82-.27-3.87-1.06l3.28-16.7c1.38-3.69 4.14-7.36 6.97-7.36m31.55-1.32c2.1 0 2.83 1.26 2.83 3.02 0 4.4-4.01 7.24-10 7.43 1.65-7.63 4.41-10.46 7.17-10.46"/></svg>