<svg xmlns="http://www.w3.org/2000/svg" xmlns:xlink="http://www.w3.org/1999/xlink"><symbol id="sprite-cart" fill="none" viewBox="0 0 20 20"><path fill="#202020" d="M6.66 15a2.5 2.5 0 0 0-2.5 2.5 2.5 2.5 0 0 0 2.5 2.5 2.5 2.5 0 0 0 2.5-2.5 2.5 2.5 0 0 0-2.5-2.5m0 3.33a.84.84 0 0 1-.83-.83.83.83 0 0 1 1.67 0 .84.84 0 0 1-.84.83m8.33-3.33a2.5 2.5 0 0 0-2.5 2.5 2.5 2.5 0 0 0 2.5 2.5 2.5 2.5 0 0 0 2.5-2.5 2.5 2.5 0 0 0-2.5-2.5m0 3.33a.84.84 0 0 1-.83-.83.84.84 0 0 1 1.67 0 .84.84 0 0 1-.84.83m-10.92-18.33h-3.24v1.67h1.77l1.67 12.5h13.22v-1.67h-11.76l-.1-.83h11.91l1.63-8.34h-14.66zm13.07 5-.97 5h-10.77l-.67-5z"/></symbol><use xlink:href="#sprite-cart" width="20" height="20"/><view id="sprite-cart-view" viewBox="0 0 20 20"/><symbol id="sprite-heart" fill="none" viewBox="0 0 20 19"><path fill="#202020" d="m11.08 2.2-1.09 1.11-1.1-1.12a5.2 5.2 0 0 0-3.68-1.52 5.2 5.2 0 0 0-3.68 1.52 5.2 5.2 0 0 0-1.53 3.68 5 5 0 0 0 1.53 3.66l8.47 8.64 8.47-8.64a5.2 5.2 0 0 0 1.53-3.67 5.2 5.2 0 0 0-1.53-3.67 5.25 5.25 0 0 0-7.39 0zm6.2 6.18-7.29 7.42-7.29-7.43a3.5 3.5 0 0 1-1.04-2.5 3.5 3.5 0 0 1 1.04-2.5 3.5 3.5 0 0 1 2.51-1.03c.95 0 1.85.36 2.5 1.02l2.28 2.34 2.28-2.33a3.56 3.56 0 0 1 5.02 0 3.5 3.5 0 0 1 1.04 2.5 3.5 3.5 0 0 1-1.04 2.5z"/></symbol><use xlink:href="#sprite-heart" width="20" height="19" y="20"/><view id="sprite-heart-view" viewBox="0 20 20 19"/><symbol id="sprite-letter-accidental" fill="none" viewBox="0 0 65 75"><path fill="currentColor" d="m0 74.4 8-74.4h15.2l7.94 74.4h-7.53l-1.9-21.02h-12.27l-1.86 21.02zm10.09-27.67h11.01l-1.44-15.76-2.04-24.32h-4l-2.1 24.36zm38.32 28.27q-5.16 0-8-2.7-2.83-2.74-3.25-8.27l-.1-2.28a29 29 0 0 1 0-2.33q.19-3.34 1.21-6 1.07-2.64 3.4-4.83 2.32-2.19 6.41-4.14a99 99 0 0 1 4.7-2.14 61 61 0 0 1 4.92-1.86v-11.06q0-3.07-1.3-4.42-1.25-1.35-4.55-1.35-2.8 0-4.47 1.16-1.67 1.17-1.81 4.14-.1 1.4-.14 3.21a119 119 0 0 0 .14 5.86h-7.25l-.1-4.1a88 88 0 0 1 0-4.04q.2-4.09 1.59-6.74t4.36-3.9q3.03-1.3 8-1.3t7.76 1.34q2.8 1.3 3.9 4.19 1.17 2.88 1.17 7.43l-.05 43.53h-7.39v-5.16h-1.02q-1.2 2.7-2.88 4.23-1.63 1.53-5.25 1.53m1.95-5.58q2.65 0 4.46-1.35t2.79-3.9l.1-17.44q-1.87.56-3.82 1.44-1.95.89-4.37 2.37-3.02 1.72-4 3.9-.93 2.15-1.02 4.98a61 61 0 0 0-.05 2.24l.1 1.95q.23 2.7 1.72 4.28 1.53 1.53 4.09 1.53"/></symbol><use xlink:href="#sprite-letter-accidental" width="65" height="75" y="39"/><view id="sprite-letter-accidental-view" viewBox="0 39 65 75"/><symbol id="sprite-letter-antique" fill="none" viewBox="0 0 95 57"><path fill="currentColor" d="M36.93 37.82h-21.05l-3.69 8.68q-1.36 3.2-1.36 4.78 0 1.26 1.16 2.23 1.2.93 5.13 1.22v1.5h-17.12v-1.5q3.4-.6 4.41-1.58 2.05-1.95 4.53-7.9l19.13-45.25h1.4l18.93 45.73q2.29 5.51 4.13 7.18 1.89 1.62 5.21 1.82v1.5h-21.45v-1.5q3.25-.16 4.37-1.1 1.17-.93 1.17-2.27 0-1.78-1.6-5.63zm-1.12-3-9.22-22.21-9.47 22.21zm46.28 16.06q-5.66 4.42-7.1 5.1a11 11 0 0 1-4.61 1.02q-3.81 0-6.3-2.63-2.44-2.64-2.44-6.94 0-2.71 1.2-4.7 1.64-2.76 5.7-5.19 4.08-2.43 13.55-5.92v-1.46q0-5.55-1.77-7.62-1.72-2.07-5.05-2.07-2.52 0-4.01 1.38-1.52 1.38-1.52 3.16l.08 2.35q0 1.87-.97 2.88-.92 1.02-2.44 1.02-1.49 0-2.45-1.06-.92-1.05-.92-2.88 0-3.48 3.53-6.4t9.9-2.92q4.9 0 8.02 1.66 2.37 1.26 3.5 3.93.71 1.75.71 7.14v12.6q0 5.32.2 6.53.2 1.18.64 1.58.49.41 1.09.41a2 2 0 0 0 1.12-.28q.84-.53 3.25-2.96v2.27q-4.5 6.08-8.58 6.08-1.97 0-3.13-1.38t-1.2-4.7m0-2.64v-14.15q-6.06 2.44-7.82 3.45-3.17 1.78-4.53 3.73t-1.37 4.26q0 2.92 1.73 4.86 1.72 1.9 3.97 1.9 3.04 0 8.02-4.05"/></symbol><use xlink:href="#sprite-letter-antique" width="95" height="57" y="114"/><view id="sprite-letter-antique-view" viewBox="0 114 95 57"/><symbol id="sprite-letter-brusque" fill="none" viewBox="0 0 94 55"><path fill="currentColor" d="M0 47.69h2.53q1.88 0 2.86-.67 1.06-.66 1.64-2.32l15.6-44.7h8.25l15.44 44.7q.57 1.66 1.64 2.32t2.94.67h2.45v6.06h-18.63v-6.06h4.09l-3.6-10.64h-17l-3.59 10.64h4.09v6.07h-18.71zm33.58-15.87-6.78-20.27-6.95 20.27zm34.77 23.18q-6.54 0-9.97-2.9-3.35-2.92-3.35-8.23 0-5.98 3.68-8.73 3.75-2.82 10.78-3.32l11.44-.75v-5.06q0-3.91-1.64-5.65-1.63-1.75-5.55-1.75-2.7 0-4.5.5a10 10 0 0 0-3.18 1.41v3h-7.6v-6.57q6.87-4.32 15.44-4.32 15.69 0 15.69 14.12v18.2q0 1.66.57 2.4.65.76 2.04.76h1.8v5.65h-9.4l-1.06-5.24q-2.61 3.4-6.12 4.98-3.43 1.5-9.07 1.5m1.96-5.98q4.9 0 7.76-2.16t2.86-6.56v-4l-10.79.84q-4 .25-5.55 1.74-1.55 1.42-1.55 4.57 0 2.75 1.71 4.16t5.56 1.4"/></symbol><use xlink:href="#sprite-letter-brusque" width="94" height="55" y="171"/><view id="sprite-letter-brusque-view" viewBox="0 171 94 55"/><symbol id="sprite-letter-grotesk" fill="none" viewBox="0 0 102 59"><path fill="currentColor" d="M11.73 58.09h-11.73l20.08-58.09h15.45l20.15 58.09h-12.14l-4.71-14.11h-22.39zm15.78-48.05-8.26 24.4h16.69l-8.26-24.4zm45.4 48.96a20 20 0 0 1-5.44-.75q-2.57-.74-4.55-2.32a11.4 11.4 0 0 1-3.14-3.9q-1.15-2.32-1.15-5.48v-.5q0-3.98 1.48-6.3 1.57-2.33 3.97-3.57 2.48-1.24 5.45-1.74a59 59 0 0 1 5.95-.83q2.4-.25 4.46-.5 2.15-.33 3.72-.91 1.65-.58 2.64-1.58 1-1.08 1-2.9v-.42q0-1.41-.58-2.4a4 4 0 0 0-1.5-1.75q-.98-.75-2.47-1.08-1.4-.33-3.3-.33-1.82 0-3.4.33t-2.72 1.16-1.82 2.24q-.66 1.33-.66 3.4v.5h-10.49v-.5q0-3.9 1.4-6.8a14.5 14.5 0 0 1 4.05-4.9q2.65-1.98 6.2-2.98 3.64-1.08 7.93-1.08 4.22 0 7.6 1 3.39.9 5.7 2.98 2.4 2 3.64 5.15t1.24 7.72v17.84q0 2.74.5 4.15.49 1.32 2.06 1.4h.58l.74-.16v4.98a76 76 0 0 1-3.63.08 84 84 0 0 1-3.8.09q-1.9 0-3.23-.5t-2.15-1.41-1.15-2.33q-.33-1.5-.33-3.4a15 15 0 0 1-2.48 3.49 14 14 0 0 1-3.3 2.57q-1.82 1.08-4.14 1.66-2.23.58-4.87.58m4.21-8.22q2.32 0 4.13-.66 1.9-.75 3.22-2.07 1.41-1.33 2.07-3.32.74-2 .74-4.65v-3.9q-.58.58-1.4 1-.83.4-1.82.74l-2.15.5q-1.07.17-2.31.33-1.49.25-3.22.5-1.74.17-3.22.66a5.5 5.5 0 0 0-2.4 1.66q-.9 1.16-.9 3.16v.33q0 1.4.49 2.49.5 1 1.4 1.74 1 .75 2.32 1.16 1.32.33 3.05.33"/></symbol><use xlink:href="#sprite-letter-grotesk" width="102" height="59" y="226"/><view id="sprite-letter-grotesk-view" viewBox="0 226 102 59"/><symbol id="sprite-letter-handwritten" fill="none" viewBox="0 0 91 96"><path fill="currentColor" d="M32.5 5.96q.81.38 1.26.38.75-.08.97 0 .23 0 .45-.15.67.15 1.04-.08l1.12.15q.45-.15 1.04-.07.6 0 .97.22.82-.15 1.04-.07t.45-.08q.15-.15.52-.07.45 0 .6.15.9-.08 1.12-.15.3-.15.6-.15 1.26.07 1.48-.08.75-.15.75-.3t.15-.15q.6 0 .82.23.37-.15.45-.3.15-.23.3-.53.6-.23.74-.68.37-.15.52-.3.22-.15.6-.3l.37-.38.3-.15q.3-.3.6-.45.37-.22.59-.52.6-.38.82-.46.3-.15.37-.37.75-.23.9-.3.15-.15.44-.15.38-.38.97-.38.6-.45.67-.3.15.08.45 0 .67-.23.9-.15h.67q.9.15 1.04.3.15.38.15.6 0 .23.07.38.6.45.6.6.52.98.9 1.43-.38.6-.38.67.08.08 0 .23-.9.9-1.04 1.58t-.52 1.28v.68q.07.15 0 .37-.08.15-.15.38-.08.15-.08.45l-.07 1.35q-.15.38-.3.9l-.15.98-.15.6q0 .3-.07.6.07.54-.08.76-.15.15-.07.3-.23 1.13-.23 1.58.08.38-.22.75.15.98-.07 1.43-.23.38-.08.75-.37.53-.22.6.15.08.07.23a3.4 3.4 0 0 0-.15 1.43q.15.68-.3 1.28-.07.38 0 .75.16.3 0 .6l-.37 1.43v.6q.08.15-.07.38l-.15 1.05q-.15.38-.08.53.08.15-.22.3.23.23.15.6-.07.38-.37.53v.75q0 .15-.15.15.15.15 0 .38-.07.15 0 .53 0 .9-.15.9t-.07.15q.07.83.14 1.05.08.15.08.3a.7.7 0 0 0-.23.53q.08.22-.07.37-.07.83 0 .98t0 .45q0 1.06-.22 1.73.15.3 0 .53-.08.23.07.6-.15 1.2-.3 1.28 0 .68-.15 1.13-.07.75 0 .98.15.22.15.52-.07.83-.15.98t-.07.3q-.07.15-.07.45v.45l-.08.9q.08 0 .08.16-.15.9-.15 1.13 0 .15.07.3.08.45.37.98-.44.52-.3.82-.22.53-.22.68.08.15-.07.3.15.15.07.38v.6q-.07.98-.15 1.28 0 .3.23.6-.23.6-.23 1.2.08.53.08 1.13.07.53-.08.75-.07.15 0 .3.23 1.2.15 1.8-.07.61.08 1.36.15.68.07.76t0 .22q0 .23.08.45.07.23.15.38 0 .68.07.75.07.08.07.15v.75q0 .45-.15.68.15.9.23.98t.07.22q.08.83.08 1.13.07.3.07.6-.07.45.08.9l.07 1.21q.3.83.22.9 0 .08.15.23-.22.52 0 .9.3.45.23 1.05.22.83.22.98 0 .23-.15.45.3.6.3.76 0 .22.15.3l.15.82q.45.53.45.68 0 .23.14.23.23.75.23.9.07.15-.08.22.3 1.06.6 1.5.3.54.45.91 0 .75.52.98-.23.22 0 .37.3.23.15.46.3.22.37.6l.15.9q.3.38.74.68.38.68.23.68-.08 0-.08.15.3.37.45.37.15.08.22.23.38.67.38.75.07.08.07.23.37.52.45.6.07.15.22.3.45.68.52.75.15.08.23.23.52.82.6.82.14 0 .3.08.44.75.51.83l.3.3q.3.6.6.75.37.38.82.38.3.3.44.37.15.15.45.08.22.37.9.67.44.53.67.6l.6.3q.81 0 .81.08l.15.15q.37.08.6 0 .3 0 .6.08.22.07.37.15.15.15.44.07h1.35q.3.08.44-.07.23-.08.38-.08.6-.07.82 0a.5.5 0 0 0 .44-.07q.52-.45.9-.53.37-.07.67-.22.52-.08.67-.3.15-.16.37 0 .3-1.13.52-1.28.3-.15.45-.38.22 0 .37.07.23.15.45.15-.07.76-.22.83t-.15.38q-.82 0-.82.15v.38q-.75.37-.82.37-.08.08-.23.08-.15.45-.37.52-.22.15-.37-.07-.15.15-.37.3a.7.7 0 0 0-.3.45q-.37.15-.67.38-.3.3-.67.15-.23.15-.52.3-.23.15-.68.15-.89.15-1.04.22l-.3.3q-.82-.07-.9 0 0 .08-.14.15a2 2 0 0 0-.67 0q-.23.08-.52.23l-.45-.23q-.08 0-.6.08-.82-.22-.82-.08-1.11-.15-1.19-.07-.97.07-1.04.15 0 .15-.23.08-.3-.15-.67-.3a2 2 0 0 1-.67-.3q-.6 0-.67-.08 0-.08-.15-.08a5 5 0 0 1-.74-.37 1 1 0 0 1-.37-.23q-.75-.15-.9-.22-.6-.53-.9-.68-.74-.53-.81-.68-.08-.07-.38-.07a1 1 0 0 0-.37-.6q-.22-.16-.37-.46-.52-.9-.82-1.05-.15-.45-.45-.75-.22-.3-.37-.68-.52-.6-.67-1.05-.08-.38-.45-.6a3 3 0 0 0-.6-1.2q-.37-.46-.52-1.29-.52-.6-.52-.9-.45-.67-.52-.9 0-.15-.15-.3-.07-.75-.15-1.06 0-.3-.07-.52-.6-.83-.82-1.28-.23-.38-.3-1.13-.45-1.05-.52-1.58 0-.45-.3-.83-.3-.9-.3-1.28.08-.37-.07-.67-.23-.6-.23-.9 0-.23-.15-.53-.14-1.05-.14-1.5 0-.38-.23-.6.15-.46-.07-.98-.23-.53.15-.9l-.38-.91a2 2 0 0 1-.07-.6l-.08-.75q.08-.15.08-.3l-.15-.6q-.08-.3-.07-.6-.23-.84-.23-1.36.08-.45.08-.68-.23-1.05-.08-1.65.08-.76 0-.76t0-.15l-.07-1.28q.07-.22-.08-.52-.07-.3-.07-.45-.08-.38 0-.76.15-.3.15-.6-.23-.82-.15-.9.07-.15.07-.3 0-.45-.07-.9a8 8 0 0 1-.08-1.06q0-.67.08-1.43.15-.75.07-1.5-.6 0-.82-.08-.15-.07-.44-.07-.6 0-.75.07h-.22q-.23-.07-.6-.15a.8.8 0 0 0-.6-.07q-1.11.22-1.86.15a4 4 0 0 0-1.34.07q-.22 0-.52.08-.23.07-.45.07a.7.7 0 0 1-.45 0 1 1 0 0 0-.37-.07q-.74.07-1.04.07a2 2 0 0 0-.52-.07q-1.27.07-1.8.23-.51.15-.89 0-.67.07-.82.07a1 1 0 0 1-.3-.07l-.52.15-.44.15q-.45.52-.67.75.14.15 0 .45-.08.3-.23.45.15.3 0 .6-.07.23.08.6-.45.53-.45.83-.3.08-.37.3 0 .23-.23.3 0 .38-.07.68-.08.23-.23.45-.15.9-.22 1.06-.07.22-.37.37-.08.75-.3.98 0 .68-.15.75-.07.15-.07.3 0 .75-.45.98-.08.45-.3.75-.15.38-.37.75l-.37 1.06a.5.5 0 0 0-.3.3.5.5 0 0 1-.3.3q-.22.83-.22.98.07.15 0 .37-.82.45-.75.53.08.15 0 .3-.45.38-.37.53.15.15.07.37-.6.68-.9.68-.07.83-.29.9-.15.08-.3.23.08.37-.22.45-.23.07-.08.38-.67.82-1.19.97-.6.68-.52.68-.15.3-.3.45-.07.15-.22.38-.37.6-.52.68a.5.5 0 0 0-.23.22q-.52.75-.97.83-.52.68-.74.83-.15.22-.22.37-.45 0-.6.23-.08.22-.22.45l-.3.3q-.15.15-.23.38-.96.6-1.64.82a2 2 0 0 0-.9.9q-.74.3-.74.38.08.15 0 .23-.52-.08-.67.15-.15.3-.52.37-.97.45-1.2.6-.21.16-.51.3-.52.08-.82.16-.37.15-.52.37-.68-.15-.75-.07-.07.15-.22 0-.75 0-.75-.08t-.15-.07q-.97.07-1.86-.15-.6.07-.97 0t-.37-.45a5 5 0 0 0-.75-.08q-.37.08-.74-.07-.15-.08-.3-.23t-.52-.08q-.45-.37-.6-.6-.22-.15-.6-.07-.3-.6-.67-.68l-.52-.9q-.6-.75-.6-.83t-.14-.3q-.23-.38-.23-.6 0-.15-.22-.15 0-.53-.07-.6a.5.5 0 0 1-.23-.23q-.07-.75-.22-.9 0-.75-.22-.9.14-.3.22-.68 0-.38-.3-.6l.3-.76q-.08 0-.08-.07.08-.68.23-.98-.15-.22 0-.53a1 1 0 0 1 .22-.37q-.07-.53.15-.75.15-.23.15-.76.3-.37.37-.67t.23-.68l.74-.98q.23-.3.37-.68.6-.82.9-.97t.37-.53q.37-.15.6-.53.22-.3.6-.45.44-.37.74-.68.22-.3.6-.6.37-.22.44-.3t.3-.22l.9-.45q.3-.08.59-.23.82-.6.97-.68t.37-.07q.67-.38.75-.38.52 0 .67-.07h.97q0 .07.15.07.96.08 1.41.23 1.2.3 1.42.52t.6.3q.37.68.74.76.07.37.6.6.15.68.3.6.14 0 .22.08.52.67.52.97.07.3.22.53-.22.83-.15.98.15.22.15.37.08.38-.07.76-.15.37-.15.9-.67.52-.75.6a.5.5 0 0 1-.22.23q-.22.6-.45.6-.15 0-.3.07-.6.76-.74.9t-.45.16q-.37-.9-.3-1.36.15-.37.15-.75a3 3 0 0 0-.3-.9 5 5 0 0 1-.37-.75 9 9 0 0 0-.74-.68 1.6 1.6 0 0 1-.52-.83q-.9-.22-.97-.3l-.23-.15q-.67 0-1.04-.15a4 4 0 0 1-.82-.38q-.37.08-.6.08h-.6q-.66.07-.81.15t-.45 0q-.6.6-.97.75-.45.53-.52.83a.7.7 0 0 1-.37.45q-.23.75-.38.98l-.37.52q-.15.6-.07.9 0 .38-.3.53.3.23.22.46a2 2 0 0 0-.07.52q0 .38.07.6t-.3.38q.23.45.3.68.08.3.08.52-.3.83-.3 1.13-.07.3-.22.45.52.53.44.6-.07.15-.07.3.67.23.67.6.37.3.45.3.07.08.37 0 .15.76.37.76.15.08.15.38.82.15 1.04.45t.6.45q.67.37.75.3.07 0 .22.07.82.23 1.04.15.15 0 .3.08.67.15.97.08.22-.08.52.07.9 0 1.34-.15t1.12-.15q.15-.15.45-.3.37-.08.52-.3.97-.38 1.34-.6.37-.15.6-.6.37-.3.52-.38.15 0 .07-.23.38-.07.53-.3.22-.22.6-.37.29-.46.44-.6l.3-.16q0-.37.22-.52.3-.15.3-.6.6-.16.74-.68.23-.45.67-.6.3-.45.38-.76.15-.22.37-.45.45-.52.45-.75t.22-.38q.37-.52.45-.75.07-.22.3-.37 0-.6.37-.9.37-.23.3-.98.44-.53.6-1.28.22-.76.66-1.36.3-.9.45-1.43.22-.45.15-.97.37-.6.52-.76.23-.07.15-.45.37-.22.37-.75.08-.45.38-.83.3-.52.3-.98t.22-.67q.22-.76.44-1.36.08-.22.08-.37t.07-.53q.3-.6.23-.68v-.3q.07-.15.22-.37.15-.23.15-.38a1 1 0 0 0-.07-.6q-.08-.3 0-.6.15-.38.52-.68.44-.3.15-.83.37-.9.44-1.13.15-.22 0-.45.23-.67.15-.82 0-.15.08-.3.37-.83.3-1.2 0-.38.14-.76l.3-.83q.23-1.05.15-1.35 0-.38.23-.6-.23-.68 0-1.13a2.4 2.4 0 0 0 .3-1.2q.14-.76.14-.9.08-.16.23-.3.15-.39.15-.54t.07-.3q.07-.6.15-.6.15-.07.15-.22.07-.76.22-1.06t.15-.6q.15-.9.15-1.28.45-.98.37-1.35 0-.45.37-.75l.23-.83q.15-.6.15-.83.3-.75.3-1.13 0-.45.3-.82-.08-.6.14-.98.23-.45.15-.75l.37-.83q.08-.53.15-.53a.5.5 0 0 0 .23-.22q.07-.38.07-.76.08-.37.3-.67l.15-.9q.22-.68.3-.98a1 1 0 0 1 .37-.6q-.08-.68.22-1.06.38-.38.38-.98.3-.67.22-.67-.08-.08-.08-.3.38-.15.38-.38.07-.23.37-.38.22-.52.22-.6.08-.15.3-.15.3-.9.37-.98.45-.6.38-.67-.08-.15.07-.3l.45-.9a1 1 0 0 0 .37-.6q.15-.39.45-.61.07-.45.6-.98.44-.45.44-.6.08-.15.15-.23l.37-.52q.08 0 .15-.15.23-.23.3-.38t.3-.22q-.82-.6-1.34-.53-.45 0-.9.15-.15 0-.44.07-.23.08-.6.15h-.82q-.82.15-.9.15l-.89.08q-.07-.07-.22-.07l-2.16.07h-.82q-.38 0-.9-.07-.3 0-.6-.08a2 2 0 0 0-.52-.08q-.9.38-1.41.3a5 5 0 0 0-.9-.07q-.22 0-.6.08-.3.07-.59-.15-.74.3-1.34 0a1 1 0 0 1-.82.22q-.45-.15-.97.08-1.34.15-2.83.15-.75.22-1.12.22-.3 0-.67.08-.37.22-.6.22a.7.7 0 0 0-.44 0q-.82.23-1.12.23t-.45.15q-.22.15-.45.22l-.6.23-1.33.3q-.97.68-1.34.75-.3.38-.53.38a1 1 0 0 0-.37.07q-.6.38-.67.46 0 .07-.15.22-.6.15-.67.38-.07.22-.37.22-.08.9-.38 1.06-.37.9-.52 1.05a1 1 0 0 0-.37.23q.08.9-.07.97-.15.08-.3.23-.9.9-.9 1.65a16 16 0 0 1-.22 1.5q-.15.83-.22 1.06-.15.23 0 .53-.08 1.28.22 1.88.3.83.37.9.08 0 .08.15.15.23.15.53-.08.22 0 .37.15.38.44.6l.45.46q.15.6.37.82.15.15.52.08 0 .45.45.53.52 0 .52.45.3 0 .53.3.22.22.6.3l.89.23q.37.15.44.3.15.07.53-.08.52.45.74.15.3-.3.67-.3.52.3 1.04.45.53.08.53.3l-1.27.75a5 5 0 0 1-.75.38q-.6-.07-.67 0t-.22.15q-.45 0-.6.15-.15.08-.3-.07-.66.22-.74.15-.08-.15-.22-.08-.97.23-1.2.38a1 1 0 0 1-.3.07q-.3 0-.6-.07a4 4 0 0 0-.74-.08l-.74-.37-1.42-.3q-.67-.6-.74-.53a1 1 0 0 1-.3.07q-.45-.3-.45-.45 0-.22-.15-.15-.52-.75-.82-.9-.15-.53-.44-.75-.3-.3-.23-.9-.44-.46-.44-.6t-.08-.3q-.3-.84-.22-.91l-.08-.23q0-.37-.07-.6-.15-.3-.23-.6.15-.9.08-1.28a4 4 0 0 1-.08-.68q.23-.52.23-.82.22-.53.22-.75t.15-.46q.37-1.88.97-2.63.22-.83.3-.9.52-.9.82-.9 0-.3.15-.45t.15-.46q.74-.75 1.26-1.13.52-.45.9-1.05.3-.22.52-.22.15-.08.15-.3.52-.38.67-.53l.3-.3q.74-.3 1.11-1.06.75-.37.75-.45.52-.3.67-.3.15-.07.37-.22.67-.45.82-.45a.5.5 0 0 0 .3-.3q.6-.38.82-.38.3 0 .52-.08.38-.07.75-.45.9-.22.97-.3l1.86-.45 1.42-.53q.67-.45.89-.45.3 0 .6-.15.74-.22.97-.15t.37-.15q.22.15.45.08a2 2 0 0 1 .52-.08q.37-.07.67 0 .3 0 .6-.15.22.15.52.08.37-.08.6.15.89-.08.74 0-.08 0 .15-.08.52.15.6.08.14-.15.3-.08.44.08.59.08.15-.08.44-.08zm19.9.38q-.38.37-.75.37-.75.38-.82.38l-.97.3-.67.15a1 1 0 0 0-.37.08q-.38.82-.67 1.05a4 4 0 0 0-.6.38q-.22 1.27-1.27 1.57-.37.53-.37.6.08.08 0 .16l-.67.75q0 .08-.15.23 0 .9-.45 1.2-.07.6-.15.83 0 .22-.14.52-.53.45-.6.53-.08.07-.15.23 0 .6-.15.82-.07.15-.07.3-.53.83-.6 1.28 0 .45-.37.75 0 .45-.3.68-.22.23-.22.68-.3.45-.45.6-.08.08 0 .23 0 1.05-.15 1.35-.15.22-.22.45-.3.45-.3.6.07.08-.08.23 0 .6-.07.75-.08.08-.22.08-.38 1.2-.68 1.35l-.07.68q.08.07.07.15 0 .3-.15.6-.07.22.08.45-.37.23-.22.6.15.3.07.68l-.37.83q0 .15-.37.07.15.3.22.6.07.23-.08.6-.37.6-.22.76.15.07.15.22-.15.15-.3.38-.15.15-.37.3 0 .75-.15.75-.07-.07 0 .08-.07.45-.22.75-.08.3 0 .83-.08.75-.23.9l-.22.23q.3.6.07 1.2t-.37 1.2q0 .83-.37 1.28t-.52.9q0 .23.07.38.15.15.15.45-.6.6-.45.75.23.15.23.45-.15.38-.3.6-.08.23.07.38-.15.98-.3 1.28-.07.23.08.38-.3.52-.37.83a4 4 0 0 1-.23.52q.75.6 1.2.75.44.08.96 0 .82-.15.9-.07h.22q.9-.15.9-.08h1.04q.08-.07.22-.07l.53.22q.44.08.67-.15.22.23.44.15.23-.15.6-.15.52.15.67.08.23-.08.37-.08.82.15 1.05.08.3-.08.67-.08a.7.7 0 0 1 .44 0q.23.08.53 0 1.11-.07 1.56-.07a2 2 0 0 1 .9.07q.07-.22 0-.45a.7.7 0 0 1 0-.45q0-.6.15-1.13.22-.6.07-1.05.07-.9.07-1.58.08-.68.45-1.05-.22-.15-.15-.45l.15-.68q0-.75-.07-1.05 0-.3.07-.6.08-.16.08-.76t.07-.68q-.07-.82-.07-.97t.07-.3q.22-.83.15-.9v-.6q0-.31.07-.54.15-.6.08-.75 0-.22.07-.45.15-.45.08-.53v-.3q0-.22.07-.37.15-.23.08-.45.3-.53.15-.53-.08-.08 0-.38 0-.9.07-1.12.15-.3.22-.68t.08-.68.22-.6a7 7 0 0 1-.07-.9l.07-1.5q.3-.61.3-.76v-.3q0-.83.3-1.28-.08-.6 0-.9t-.08-.45q.15-.6.23-.83t0-.6q.37-1.13.22-1.73-.07-.6.37-.98-.07-.6-.15-.75-.07-.23-.07-.3.22-.68.15-1.13.37-.9.3-1.2 0-.38.15-.68.3-.68.22-.83v-.45q.15-.23.15-.45v-.38q.15-.68.07-.75 0-.08.08-.23.22-.37.3-.6t0-.38a1.2 1.2 0 0 0 .14-.82q.45-1.13.3-1.43-.07-.38 0-.6-.37-.15-.82 0z"/><path fill="currentColor" d="M84.52 35.45q-.15.9-.15.97.07.08.07.15-.07.6-.07.83.07.23 0 .46-.08.14-.3.37-.15.15 0 .45-.45.6-.3.68t.15.15q.08.83 0 1.05a1 1 0 0 0-.07.38q0 .98-.15 1.13.07.45-.08.82-.07.38.15.6.08.83 0 1.06 0 .15.15.37-.3.9-.22 1.06.3.83.3 1.2 0 .3.22.6-.23.6-.08 1.13t.23 1.13q-.08.83 0 .9.07 0 .07.15.15.38.15.9 0 .46.22.76 0 1.05.53 1.28-.08.52.07.6t.15.22q-.15.38.07.6.23.16 0 .38.3.15.6.23a.5.5 0 0 1 .45.22q.44 0 .74.15.38.15.75-.07.6-.3.74-.6.52 0 .75-.15l.6-.3q.22-.3.37-.3.15-.08.37-.08-.15.3-.3.53-.15.22 0 .67a5 5 0 0 0-.74.38q-.3.15-.52.53-.75.6-.9.75t-.45.15q-.74.68-.74.98-.22.15-.52.15a1 1 0 0 0-.38.22q-.44.53-.6.53-.07 0-.14.22-1.04.23-1.42.15h-.67q-.74-.15-.97-.45-.22-.22-.52 0-.15-.52-.74-.45-.38-.45-.53-.75-.07-.23-.37-.38a1 1 0 0 1-.07-.37q0-.3-.08-.45l-.22-.46q-.08-.37 0-.67a34 34 0 0 0-.67-1.8q-.15-.53 0-.99-.15-.6-.23-.75l-.07-.3q0-.45-.08-.75v-.75q.08-.98-.07-1.28a4 4 0 0 1-.07-.75q.07-.83 0-.9v-.23q.07-.68 0-.83a1 1 0 0 1-.08-.3q-.82.45-1.04.68-.15.15-.3.37-.15.45-.37.6a1 1 0 0 0-.38.23q-.44.38-.52.6 0 .23-.15.38-.44.3-.6.45-.07.07 0 .38-.3.15-.44.37-.15.23-.52.38a7 7 0 0 1-.75.9q-.37.38-.67.53-.22.07-.37.37-.6.38-.75.6a.7.7 0 0 1-.3.38q-.66.38-.74.53-.07.07-.22 0-.97.82-.97 1.05-.75.3-.9.53-.15.22-.6.15-.74.45-1.48.37-.75-.15-1.2-.3l-.44-.22q-.15-.08-.45-.15-.67-.38-.82-.6-.15-.3-.52-.46.22-.37 0-.67l-.37-.6q.07-.38 0-.53-.08-.23-.15-.38-.08-.9 0-.98t.07-.15q0-.3-.07-.52-.08-.3 0-.6.3-.83.22-1.2 0-.38.15-.69.22-.37.15-.52 0-.23.07-.38.38-.6.38-.75.15-.83.22-.83.15-.52.3-.6.22-.15.07-.45.3-.53.3-.68l.15-.3a.7.7 0 0 0 .45-.37q.15-.3 0-.68.67-.3.67-.53 0-.3.15-.52.52-.38.97-.6.44-.3.44-.98.45-.53.67-.6.3-.16.38-.53.22-.15.37-.3.15-.23.3-.38.37-.38.37-.45t.15-.23q.82-.45.97-.6.52-.6.67-.75t.45-.23a6 6 0 0 1 1.19-.82q.3-.15.45-.15a.7.7 0 0 0 .37-.3q.67-.15 1.2-.3 1.03-.53 1.56-.38.52.07 1.26 0 .75.3.9.45.22.15.37.23.22 0 .52-.08a.6.6 0 0 1 .52.08q.75.6.82.6.15 0 .3.15.9.45 1.34.15t.82-.53q.3.08.52.08.3-.08.53.15m-9.17 3.3q-.37 0-.52-.14a.5.5 0 0 0-.23-.23q-.67-.15-1.11.07t-1.05.23q-.74.68-.74.75-.45.6-.67.83t-.08.6q-.9.38-.9.9t-.51.68q-.08.38-.23.68t-.22.68q-.23.9-.23.97.08.08 0 .23-.15.37-.37.68-.15.3 0 .52l-.3 1.13q-.07.3-.22.68.07.68.07 1.05 0 .38.08.83.15.45.15.83l.6.6q.07 0 .07.07 1.04.15 1.12.23l.44.22q.38-.37.75-.6t.52-.83q.75-.67.9-.9.22-.3.6-.45l.74-.98q.6-.45.67-.75.15-.3.3-.83l.44-.37q.15-.15.08-.45.15-.3.3-.53.22-.3.22-.68.37-.15.45-.37.15-.3.52-.3.07-.76.22-.83.15-.15.45-.15.15-.83.3-1.2l.3-.76q-.53-.6-.53-.9-.6-.38-.74-.38l-.15-.22a3 3 0 0 0-.6-.23 2 2 0 0 0-.52-.22z"/></symbol><use xlink:href="#sprite-letter-handwritten" width="91" height="96" y="285"/><view id="sprite-letter-handwritten-view" viewBox="0 285 91 96"/><symbol id="sprite-letter-historical" fill="none" viewBox="0 0 93 52"><path fill="currentColor" d="m51.84 49.51-8 1.16a406 406 0 0 0-4.24-13.8l-27.27 1.2a342 342 0 0 0-4.64 13.04l-7.69-1.05a345 345 0 0 1 10.57-25.36 494 494 0 0 1 12.4-24.7l9.49.17a310 310 0 0 1 10.64 24.13 338 338 0 0 1 8.74 25.21m-24.84-43.85a295 295 0 0 0-6.47 13.15 334 334 0 0 0-5.83 13.32l22.9-.99a236 236 0 0 0-4.94-12.84 294 294 0 0 0-5.66-12.64m64.47 46.34-6.64-1.12.48-4.8q-4.13 2.65-8.13 3.84-3.97 1.2-7.42 1.2-2.44 0-4.75-.65-2.27-.62-4-1.95-1.75-1.3-2.84-3.3-1.05-2.05-1.05-4.8t.81-4.95 2.24-3.85a14 14 0 0 1 3.36-2.86 20 20 0 0 1 4.16-1.94q2.2-.75 4.64-1.1a32 32 0 0 1 4.85-.37q2.23 0 4.16.17t3.43.45a23 23 0 0 0-1.66-4.54q-1.02-2.1-2.71-3.4-1.66-1.33-4.3-1.33-1.33 0-3.02.4-1.7.38-3.73 1.4-2.03 1.03-4.44 2.83-2.4 1.77-5.15 4.57l-4.1-5.01q3.26-3.07 6.24-5.01t5.62-3.07q2.61-1.09 4.85-1.5 2.27-.4 4.06-.4 3.15 0 5.56 1.05a14 14 0 0 1 4.3 2.93q1.86 1.84 3.12 4.36 1.22 2.42 2.07 5.39.81 2.9 1.15 6 .37 3.1.37 6.16 0 3.27-.37 7.02t-1.15 8.18m-5.7-13.53q.07-1.7.1-3.37a26 26 0 0 0-.16-3.48 27 27 0 0 0-3.5-.82 22 22 0 0 0-3.65-.3q-3.05 0-5.93.71-2.85.72-4.91 2.08-2.07 1.37-3.12 3.34-1.02 1.98-.4 4.5.47 2.04 1.82 2.86 1.4.82 3.32.82 2.5 0 5.63-1.06a46 46 0 0 0 6-2.59q2.9-1.5 4.8-2.69"/></symbol><use xlink:href="#sprite-letter-historical" width="93" height="52" y="381"/><view id="sprite-letter-historical-view" viewBox="0 381 93 52"/><symbol id="sprite-letter-monospaced" fill="none" viewBox="0 0 76 67"><path fill="currentColor" d="M9.65 66.24h-9.65l13.52-66.24h13.24l13.43 66.24h-9.83l-3.22-16.94h-14.28zm10.3-53.27-5.48 27.34h11.07l-5.5-27.35zm33.83 54.03q-2.65 0-4.73-.85-2.08-.95-3.5-2.56-1.33-1.7-2.08-3.97-.66-2.27-.66-5.2v-3.98q0-3.4 1.13-5.4t2.93-3.21q1.8-1.33 4.07-1.99 2.36-.76 4.73-1.42l3.3-.85q1.52-.47 2.66-1.14 1.13-.66 1.7-1.7.66-1.04.66-2.84v-2.93q0-1.42-.38-2.37-.28-1.04-.94-1.7-.67-.66-1.7-.95-.95-.28-2.37-.28-1.32 0-2.37.28a5 5 0 0 0-1.89 1.04q-.75.67-1.23 1.9-.37 1.13-.37 3.02v3.98h-8.8v-3.88q0-3.5 1.04-6.15t2.93-4.45q1.99-1.9 4.73-2.84 2.84-.94 6.34-.95 3.78 0 6.43.95t4.35 2.84q1.8 1.8 2.55 4.54.85 2.65.85 6.25v26.5q0 2.08.29 3.02.37.86 1.51.95h.47l.57-.19v5.77q-1.14.2-2.36.2h-2.37q-1.8 0-3.12-.3-1.23-.37-2.08-1.13a6 6 0 0 1-1.14-1.98q-.37-1.23-.47-2.94a13 13 0 0 1-1.7 2.84 13 13 0 0 1-2.37 2.18q-1.32.85-3.02 1.32a11 11 0 0 1-3.6.57m3.4-7.95q1.71 0 2.94-.47a6 6 0 0 0 2.08-1.61q.95-1.04 1.32-2.65.48-1.61.48-3.7v-9.17q-.38.28-.95.66-.57.28-1.23.57t-1.42.47-1.6.38q-1.04.29-2.27.57a9 9 0 0 0-2.18.85q-.94.47-1.6 1.51-.57.95-.57 2.65v4.45q0 1.42.28 2.46a6 6 0 0 0 1.04 1.8q.66.66 1.51.95.95.28 2.18.28"/></symbol><use xlink:href="#sprite-letter-monospaced" width="76" height="67" y="433"/><view id="sprite-letter-monospaced-view" viewBox="0 433 76 67"/><symbol id="sprite-letter-non-alphabetic" fill="none" viewBox="0 0 136 63"><path fill="currentColor" d="M12.78 38.83q0 .69-.41 1.14-.38.42-1.01.73a7 7 0 0 1-1.55.49q-.86.19-1.8.34-.8.15-1.88.72t-2.1 1.75q-1.02 1.14-1.74 3.04-.67 1.86-.67 4.64 0 2.85.75 4.75.79 1.86 2.07 3a8 8 0 0 0 2.9 1.63q1.65.46 3.38.46 1.95 0 3.72-.57t3.42-1.71 3.27-2.89 3.31-4.1a72 72 0 0 0 4.02-6.42 181 181 0 0 0 3.91-7.34 247 247 0 0 0 3.73-7.79l3.57-7.75 3.42-7.3a145 145 0 0 1 3.27-6.38q1.66-3 2.97-4.82 1.36-1.87 2.56-2.82 1.24-.98 2.48-1.29 1.24-.34 2.7-.34 4.22 0 6.1 1.82t1.88 5.44q0 2.77-.94 6.6a118 118 0 0 1-2.37 8.26 395 395 0 0 1-3.08 9.04 356 356 0 0 0-3.09 9 116 116 0 0 0-2.37 8.17q-.94 3.77-.94 6.43 0 2.88 1.32 4.48t4.36 1.6q2.48 0 4.78-1.18 2.33-1.18 4.58-3.5 2.3-2.35 4.63-5.85 2.37-3.5 4.96-8.13l1.96-3.5 1.01.72-1.95 3.5q-2.78 4.98-5.27 8.7-2.48 3.69-4.96 6.16t-5.08 3.68q-2.55 1.26-5.49 1.26-2.33 0-4.1-.73t-2.96-1.97a9 9 0 0 1-1.85-2.93 11 11 0 0 1-.6-3.64q0-1.68.42-3.96.45-2.28 1.16-4.94a168 168 0 0 1 1.7-5.66q.97-3 2.02-6.12h-15.83q-1.39 2.93-2.85 5.78-1.43 2.85-2.9 5.51a103 103 0 0 1-2.9 5.05 67 67 0 0 1-2.81 4.3q-1.85 2.58-3.65 4.4-1.77 1.79-3.61 2.97t-3.76 1.7a15 15 0 0 1-3.99.54q-5 0-7.82-2.93-2.78-2.96-2.78-8.55 0-3 .79-5.62.79-2.66 2.18-4.63t3.27-3.12a7.7 7.7 0 0 1 4.06-1.14q1.1 0 1.77.38.71.38.71 1.44m35.27-29.1a214 214 0 0 0-2.22 4.37l-2.44 5.17-2.67 5.7-2.78 5.92h15.6q1.24-3.65 2.4-7.25a162 162 0 0 0 2.15-6.92 71 71 0 0 0 1.54-6.12q.6-2.81.6-4.86 0-1.33-.26-2.17t-.75-1.29q-.45-.5-1.13-.65a5 5 0 0 0-1.43-.19 7 7 0 0 0-2.29.38q-1.01.38-2 1.33t-2.02 2.55-2.3 4.03"/><path fill="currentColor" d="M78.74 39.02q1.35-4.1 3.23-7.44 1.88-3.39 4.06-6 2.22-2.63 4.62-4.53 2.45-1.9 4.85-3.11 2.45-1.26 4.78-1.87 2.37-.6 4.44-.6 2.14 0 3.57.68 1.43.64 2.3 1.86.9 1.18 1.27 2.89.38 1.67.38 3.72l3.04-8.43h5.57l-9.6 26.6q-.52 1.48-1.04 3.03a47 47 0 0 0-.94 3.04 48 48 0 0 0-.64 2.9q-.23 1.36-.23 2.54 0 2.62 1.36 4.18 1.39 1.56 4.28 1.56 2.52 0 4.89-1.07 2.37-1.1 4.66-3.3 2.33-2.25 4.66-5.59 2.34-3.38 4.82-7.9l1.92-3.5 1.01.72-1.95 3.5q-2.75 4.94-5.27 8.55-2.48 3.57-4.96 5.93-2.49 2.31-5.08 3.45-2.6 1.1-5.53 1.1-2.29 0-4.06-.72a8 8 0 0 1-2.93-1.97q-1.17-1.3-1.77-3.12t-.6-4.06q0-1.49.26-3.2a29 29 0 0 1 .8-3.6q-4.93 8.35-9.74 12.53-4.82 4.14-9.78 4.15-2.33 0-3.99-.84a7.6 7.6 0 0 1-2.67-2.4q-1.05-1.55-1.54-3.6-.49-2.1-.49-4.56 0-2.66.53-5.59.53-2.96 1.5-5.93m8.01 21.01q2.03 0 4.14-1.06 2.1-1.1 4.17-2.96 2.1-1.9 4.06-4.41a60 60 0 0 0 3.69-5.4 68 68 0 0 0 3.23-5.92 63 63 0 0 0 2.52-5.97q1.1-2.96 1.66-5.62.6-2.7.6-4.83 0-1.94-.5-3.23-.44-1.33-1.23-2.13a4 4 0 0 0-1.77-1.17 6 6 0 0 0-2.03-.35q-2.1 0-4.7 1.33-2.56 1.3-5.23 4-2.67 2.65-5.26 6.76-2.56 4.06-4.7 9.57-1.77 4.6-2.67 8.51-.86 3.92-.86 6.54 0 2.96 1.16 4.67 1.2 1.68 3.72 1.68"/></symbol><use xlink:href="#sprite-letter-non-alphabetic" width="136" height="63" y="500"/><view id="sprite-letter-non-alphabetic-view" viewBox="0 500 136 63"/><symbol id="sprite-logo-delete" fill="none" viewBox="0 0 410 404"><path fill="url(#a)" d="m399.64 59.53-184 329.02a10 10 0 0 1-17.41.07l-187.65-329.06a10 10 0 0 1 10.45-14.8l184.2 32.92a10 10 0 0 0 3.55 0l180.34-32.87a10 10 0 0 1 10.52 14.72"/><path fill="url(#b)" d="m292.96 1.57-136.16 26.69a5 5 0 0 0-4.03 4.6l-8.38 141.47a5 5 0 0 0 6.12 5.17l37.91-8.75a5 5 0 0 1 6.02 5.87l-11.26 55.15a5 5 0 0 0 6.35 5.79l23.42-7.11a5 5 0 0 1 6.35 5.8l-17.9 86.62c-1.12 5.42 6.09 8.38 9.1 3.73l2-3.1 110.95-221.43a5 5 0 0 0-5.41-7.15l-39.03 7.53a5 5 0 0 1-5.75-6.3l25.47-88.28a5 5 0 0 0-5.77-6.3"/><defs><linearGradient id="a" x1="6" x2="235" y1="33" y2="344" gradientUnits="userSpaceOnUse"><stop stop-color="#41D1FF"/><stop offset="1" stop-color="#BD34FE"/></linearGradient><linearGradient id="b" x1="194.651" x2="236.076" y1="8.818" y2="292.989" gradientUnits="userSpaceOnUse"><stop stop-color="#FFEA83"/><stop offset=".083" stop-color="#FFDD35"/><stop offset="1" stop-color="#FFA800"/></linearGradient></defs></symbol><use xlink:href="#sprite-logo-delete" width="410" height="404" y="563"/><view id="sprite-logo-delete-view" viewBox="0 563 410 404"/><symbol id="sprite-loupe" fill="none" viewBox="0 0 20 20"><path fill="#202020" d="M13.33 0a6.7 6.7 0 0 0-6.67 6.67 6.6 6.6 0 0 0 1.41 4.09l-8.07 8.07 1.18 1.17 8.07-8.07a6.7 6.7 0 0 0 4.08 1.4 6.7 6.7 0 0 0 6.67-6.66 6.7 6.7 0 0 0-6.67-6.67m0 11.67a5 5 0 0 1-5-5 5 5 0 0 1 5-5 5 5 0 0 1 5 5 5 5 0 0 1-5 5"/></symbol><use xlink:href="#sprite-loupe" width="20" height="20" y="967"/><view id="sprite-loupe-view" viewBox="0 967 20 20"/><symbol id="sprite-moon" fill="none" viewBox="0 0 20 20"><path fill="#202020" d="M18.3 17v-1.17l-2.63.03a5.85 5.85 0 0 1 0-11.7h2.64v-1.58a10 10 0 0 0-6.69-2.58 10 10 0 0 0 0 20c2.48 0 4.84-.92 6.68-2.6zm-6.67 1.33a8.34 8.34 0 0 1 0-16.66c1.26 0 2.5.29 3.63.84a7.5 7.5 0 0 0-7.09 7.5 7.5 7.5 0 0 0 7.04 7.5 8 8 0 0 1-3.59.82z"/></symbol><use xlink:href="#sprite-moon" width="20" height="20" y="987"/><view id="sprite-moon-view" viewBox="0 987 20 20"/><symbol id="sprite-scroll-arrow" fill="none" viewBox="0 0 20 12"><path fill="#202020" d="m0 10.5 10-10.5 1.43 1.5-10 10.5z"/><path fill="#202020" d="m18.57 12-10-10.5 1.43-1.5 10 10.5z"/></symbol><use xlink:href="#sprite-scroll-arrow" width="20" height="12" y="1007"/><view id="sprite-scroll-arrow-view" viewBox="0 1007 20 12"/><symbol id="sprite-select-arrow" fill="none" viewBox="0 0 8 6"><path fill="#202020" d="m4 6-4-6h8z"/></symbol><use xlink:href="#sprite-select-arrow" width="8" height="6" y="1019"/><view id="sprite-select-arrow-view" viewBox="0 1019 8 6"/><symbol id="sprite-sun" fill="none" viewBox="0 0 20 20"><path fill="#fff" d="M10.83 0h-1.66v2.55a7.4 7.4 0 0 0-3.84 1.6l-1.81-1.8-1.18 1.17 1.81 1.8a7.5 7.5 0 0 0-1.6 3.85h-2.55v1.66h2.55a7.4 7.4 0 0 0 1.6 3.85l-1.8 1.8 1.17 1.18 1.8-1.81a7.5 7.5 0 0 0 3.85 1.6v2.55h1.66v-2.55a7.4 7.4 0 0 0 3.85-1.6l1.8 1.8 1.18-1.17-1.81-1.8a7.5 7.5 0 0 0 1.6-3.85h2.55v-1.66h-2.55a7.4 7.4 0 0 0-1.6-3.84l1.8-1.81-1.17-1.18-1.8 1.81a7.5 7.5 0 0 0-3.85-1.6z"/></symbol><use xlink:href="#sprite-sun" width="20" height="20" y="1025"/><view id="sprite-sun-view" viewBox="0 1025 20 20"/><symbol id="sprite-telegram" fill="none" viewBox="0 0 18 15"><path fill="#F0F0F0" d="M18 1.28c-.25 2.64-1.33 9.04-1.88 12-.23 1.25-.7 1.66-1.13 1.71-.96.09-1.7-.63-2.63-1.25-1.46-.96-2.29-1.56-3.7-2.5-1.65-1.08-.58-1.68.36-2.65.25-.25 4.5-4.14 4.59-4.49a.3.3 0 0 0-.08-.3c-.1-.08-.24-.05-.35-.03q-.22.04-7.01 4.65-1 .69-1.8.67c-.6-.02-1.72-.33-2.57-.62-1.05-.33-1.86-.52-1.8-1.1q.06-.45 1.23-.92 7.28-3.18 9.69-4.18c4.62-1.94 5.56-2.27 6.2-2.27.13 0 .44.03.64.2a.7.7 0 0 1 .23.45c-.01.1.02.4 0 .63"/></symbol><use xlink:href="#sprite-telegram" width="18" height="15" y="1045"/><view id="sprite-telegram-view" viewBox="0 1045 18 15"/><symbol id="sprite-three-columns" fill="none" viewBox="0 0 21 20"><path fill="#202020" fill-rule="evenodd" d="M18.83 1.67h-16.66v1.66h16.66zm0 7.5h-16.66v1.66h16.66zm0 7.5h-16.66v1.66h16.66zm-18.33-15c0-.92.75-1.67 1.67-1.67h16.66c.92 0 1.67.75 1.67 1.67v1.66c0 .92-.75 1.67-1.67 1.67h-16.66c-.92 0-1.67-.75-1.67-1.67zm0 7.5c0-.92.75-1.67 1.67-1.67h16.66c.92 0 1.67.75 1.67 1.67v1.66c0 .92-.75 1.67-1.67 1.67h-16.66c-.92 0-1.67-.75-1.67-1.67zm1.67 5.83c-.92 0-1.67.75-1.67 1.67v1.66c0 .92.75 1.67 1.67 1.67h16.66c.92 0 1.67-.75 1.67-1.67v-1.66c0-.92-.75-1.67-1.67-1.67z" clip-rule="evenodd"/></symbol><use xlink:href="#sprite-three-columns" width="21" height="20" y="1060"/><view id="sprite-three-columns-view" viewBox="0 1060 21 20"/><symbol id="sprite-two-columns" fill="none" viewBox="0 0 20 20"><path fill="#FF4B41" d="M0 2a2 2 0 0 1 2-2h16a2 2 0 0 1 2 2v4.33a2 2 0 0 1-2 2h-16a2 2 0 0 1-2-2zm0 11.67a2 2 0 0 1 2-2h16a2 2 0 0 1 2 2v4.33a2 2 0 0 1-2 2h-16a2 2 0 0 1-2-2z"/></symbol><use xlink:href="#sprite-two-columns" width="20" height="20" y="1080"/><view id="sprite-two-columns-view" viewBox="0 1080 20 20"/><symbol id="sprite-user-delete" fill="none" viewBox="0 0 18 20"><path stroke="#163152" stroke-linecap="square" stroke-linejoin="round" d="M15.67 19h-13.34c-.73 0-1.33-.55-1.33-1.23a4.9 4.9 0 0 1 3.43-4.58l.41-.14a12.8 12.8 0 0 1 8.32 0l.4.14a4.9 4.9 0 0 1 3.44 4.58c0 .68-.6 1.23-1.33 1.23Zm-8.7-9.6a4.8 4.8 0 0 0 4.06 0 4.2 4.2 0 0 0 2.32-2.8l.08-.31a4.1 4.1 0 0 0-.84-3.54l-.12-.14c-.82-1.01-2.1-1.61-3.47-1.61s-2.65.6-3.47 1.6l-.12.15a4.1 4.1 0 0 0-.84 3.54l.08.32a4.2 4.2 0 0 0 2.32 2.8Z"/></symbol><use xlink:href="#sprite-user-delete" width="18" height="20" y="1100"/><view id="sprite-user-delete-view" viewBox="0 1100 18 20"/><symbol id="sprite-user" fill="none" viewBox="0 0 20 20"><path fill="#202020" d="M10 11.65a5.84 5.84 0 0 0 5.83-5.83 5.84 5.84 0 0 0-5.84-5.83 5.84 5.84 0 0 0-5.83 5.83 5.84 5.84 0 0 0 5.83 5.83m0-10c2.3 0 4.17 1.87 4.17 4.17a4.17 4.17 0 0 1-8.33 0 4.17 4.17 0 0 1 4.16-4.16m5 10.83h-10a4.17 4.17 0 0 0-4.16 4.16v3.34h1.66v-3.34a2.5 2.5 0 0 1 2.5-2.5h10a2.5 2.5 0 0 1 2.5 2.5v3.34h1.67v-3.34a4.17 4.17 0 0 0-4.17-4.17"/></symbol><use xlink:href="#sprite-user" width="20" height="20" y="1120"/><view id="sprite-user-view" viewBox="0 1120 20 20"/><symbol id="sprite-vk" fill="none" viewBox="0 0 22 12"><path fill="#F0F0F0" d="M11.98 12c-7.51 0-11.8-4.5-11.98-12h3.77c.12 5.5 2.9 7.83 5.1 8.31v-8.31h3.54v4.75c2.17-.21 4.45-2.37 5.22-4.75h3.55c-.6 2.93-3.07 5.1-4.83 5.98a10 10 0 0 1 5.65 6.02h-3.9a6.6 6.6 0 0 0-5.7-4.29v4.29z"/></symbol><use xlink:href="#sprite-vk" width="22" height="12" y="1140"/><view id="sprite-vk-view" viewBox="0 1140 22 12"/></svg>