<svg width="230" height="60" viewBox="0 0 230 60" fill="none" xmlns="http://www.w3.org/2000/svg">
<path d="M99.9266 40.1987C97.4313 40.1987 95.8451 38.754 95.8451 36.3192C95.8451 33.2985 99.3306 32.1771 103.745 32.1771C104.534 32.1771 105.392 32.2479 106.241 32.3085V36.5819C105.322 38.36 103.341 40.1987 99.9266 40.1987ZM91.1069 22.1047C93.5417 20.9833 97.8152 20.1953 101.24 20.1953C104.988 20.1953 106.301 21.5794 106.301 24.8628C106.301 25.5194 106.301 26.2468 106.17 27.0955C105.311 27.0248 104.463 27.0248 103.675 27.0248C93.4811 27.0248 87.0254 30.1869 87.0254 37.6225C87.0254 43.3406 91.0362 47.2302 97.0878 47.2302C101.957 47.2302 104.978 44.9268 106.756 42.2293H107.09L108.474 46.7654H115.445C114.525 43.9973 114.262 40.9766 114.262 37.7538C114.262 33.541 114.717 29.0655 114.717 24.6607C114.717 17.6898 112.09 13.1436 102.877 13.1436C97.6131 13.1436 92.5516 14.1337 89.0662 15.7097L91.1069 22.0946V22.1047ZM86.106 13.8205C84.722 13.3558 83.4086 13.0931 82.2266 13.0931C78.8017 13.0931 76.2356 14.9318 74.7303 18.1647H74.4676L73.4877 13.8205H66.84V46.7048H75.387V25.4588C76.1144 22.8927 78.2158 21.1147 81.3072 21.1147C82.4286 21.1147 83.6713 21.3773 84.9947 21.8421L86.1161 13.8205H86.106ZM45.513 40.1987C43.0177 40.1987 41.4315 38.754 41.4315 36.3192C41.4315 33.2985 44.917 32.1771 49.3218 32.1771C50.1098 32.1771 50.9685 32.2479 51.8172 32.3085V36.5819C50.8978 38.36 48.9177 40.1987 45.5029 40.1987M36.6832 22.1047C39.118 20.9833 43.3915 20.1953 46.8163 20.1953C50.5644 20.1953 51.8778 21.5794 51.8778 24.8628C51.8778 25.5194 51.8778 26.2468 51.7465 27.0955C50.8978 27.0248 50.0391 27.0248 49.2511 27.0248C39.0574 27.0248 32.6118 30.1869 32.6118 37.6225C32.6118 43.3406 36.6226 47.2302 42.6742 47.2302C47.5437 47.2302 50.5745 44.9268 52.3425 42.2293H52.6759L54.06 46.7654H61.0309C60.1116 43.9973 59.8489 40.9766 59.8489 37.7538C59.8489 33.541 60.3136 29.0655 60.3136 24.6607C60.3136 17.6898 57.6869 13.1436 48.4732 13.1436C43.2096 13.1436 38.1481 14.1337 34.6525 15.7097L36.6933 22.0946L36.6832 22.1047ZM13.4165 7.75888C17.9526 7.75888 22.5595 9.3349 22.5595 15.1238C22.5595 21.9027 17.69 23.2867 12.8912 23.2867C12.1638 23.2867 9.72898 23.216 9.01168 23.0241V8.09227C10.0018 7.89022 11.7091 7.75888 13.4165 7.75888ZM0 46.7048H9.01168V30.8537C9.93104 31.0557 13.3559 31.1163 14.2045 31.1163C23.2869 31.1163 32.0359 26.7722 32.0359 15.2551C32.0359 2.36403 21.9028 0 12.6992 0C8.355 0 3.68752 0.394006 0 1.1214V46.7048Z" fill="#202020"/>
<path d="M226.515 37.7336C224.807 39.643 221.584 42.0677 218.493 42.0677C214.876 42.0677 212.249 39.3703 212.249 34.4401C212.249 33.3895 212.31 32.0054 212.643 30.7527C224.868 29.7626 230 25.8932 230 19.9731C230 15.8309 226.454 13.2649 221.584 13.2649C211.128 13.2649 203.51 23.3272 203.51 35.2181C203.51 42.8456 207.713 47.2504 215.018 47.2504C220.998 47.2504 226.262 42.7749 228.03 39.3602L226.515 37.7235V37.7336ZM120.678 18.0737H125.012L121.466 35.4302C121.203 36.9456 120.748 39.3703 120.748 41.411C120.748 45.0884 122.921 47.2605 127.194 47.2605C132.064 47.2605 136.862 44.5631 138.701 42.2596L137.913 40.6129C136.266 41.5322 134.559 42.0576 132.518 42.0576C130.68 42.0576 129.629 41.1382 129.629 38.7742C129.629 37.7235 129.831 36.6021 130.154 34.9554L133.64 18.0636L142.055 17.9929L150.663 46.4624C149.279 50.9985 146.854 53.1706 145.733 54.1505L141.126 50.7257C138.762 51.5844 136.529 56.4438 137.115 58.7473C138.226 59.5353 139.55 60 141.388 60C147.369 60 151.774 55.3932 156.442 46.4523C162.16 35.804 166.757 24.5597 168.868 14.2448C167.949 13.6488 166.433 13.3861 164.726 13.3861C163.019 13.3861 161.18 13.6488 159.988 14.2448C160.25 15.2349 161.564 20.953 161.564 22.721C160.574 26.9237 158.937 31.9852 157.23 36.1273L156.048 39.8754H155.846L155.583 36.1273L150.976 16.4068C150.582 14.4974 149.4 13.2548 147.097 13.2548C145.258 13.2548 139.54 13.6488 134.276 14.0428L135.792 6.87995L134.539 6.16265C132.175 6.48594 128.093 7.41539 126.911 8.46607L125.86 13.3962C124.214 13.8508 122.183 14.5782 120.668 15.6289V18.0636L120.678 18.0737ZM177.678 45.9471C179.254 46.9978 180.506 47.2605 182.87 47.2605C193.196 47.2605 200.884 37.1982 200.884 23.1352C200.884 16.8917 197.924 13.275 193.125 13.275C188.851 13.275 185.437 15.639 182.931 20.8318H182.598L183.911 14.063L182.729 13.275C179.506 13.275 173.596 14.457 171.161 15.639V17.8111L174.516 18.8011L166.494 58.7069L167.343 59.4949H179.961V56.9995C178.779 56.2115 177.132 55.4235 175.748 55.1608L177.657 45.9572L177.678 45.9471ZM188.659 18.3364C191.155 18.3364 192.276 20.3064 192.276 24.0546C192.276 33.2581 187.74 43.4417 182.285 43.4417C180.244 43.4417 179.456 43.179 178.405 42.391L181.688 25.6912C183.073 22.0037 185.831 18.3263 188.659 18.3263M220.21 17.013C222.312 17.013 223.039 18.2657 223.039 20.0337C223.039 24.4385 219.028 27.2672 213.048 27.4592C214.694 19.8316 217.452 17.0029 220.21 17.0029" fill="#202020"/>
</svg>
