<svg width="40" height="33" viewBox="0 0 40 33" fill="none" xmlns="http://www.w3.org/2000/svg">
<path d="M0 32.4694H7.33874V21.9992C7.96198 22.1442 10.3125 22.1442 10.8867 22.1442C17.1704 22.1442 23.2137 19.0702 23.2137 10.9517C23.2137 1.53815 16.0197 0 9.30414 0C6.04326 0 2.63765 0.336615 0 0.815825V32.4694ZM9.92738 6.33959C12.7564 6.33959 15.5388 7.25126 15.5388 10.8068C15.5388 14.9864 12.565 15.8022 9.59125 15.8022C9.20844 15.8022 7.72155 15.7064 7.33641 15.6105V6.58036C7.91296 6.43543 8.86998 6.33959 9.92504 6.33959" fill="#202020"/>
<path d="M24.3294 12.5857H27.6393L24.3294 24.6898C23.9466 26.083 23.5615 27.523 23.5615 28.9162C23.5615 31.7985 25.6249 33 28.0712 33C31.332 33 34.6419 31.7026 36.8478 29.4936L36.3202 28.2921C34.9781 29.012 33.5869 29.3487 32.1957 29.3487C30.8045 29.3487 30.1346 28.3388 30.1346 27.3313C30.1346 26.3238 30.4217 25.2672 30.6621 24.3532L33.923 12.5857H39.2473C39.7749 11.8166 40.111 10.5683 39.9663 9.65666H34.6419L36.0331 4.61444L35.1228 4.08614C33.6826 4.23107 30.8068 4.75937 29.4157 5.72012L28.5053 9.17745C26.9227 9.6099 25.6763 10.0891 24.4275 10.7623L24.3318 12.588L24.3294 12.5857Z" fill="#202020"/>
</svg>
